<?xml version="1.0" standalone="no"?>
<!DOCTYPE svg PUBLIC "-//W3C//DTD SVG 20010904//EN"
 "http://www.w3.org/TR/2001/REC-SVG-20010904/DTD/svg10.dtd">
<svg version="1.0" xmlns="http://www.w3.org/2000/svg"
 width="1990.000000pt" height="1990.000000pt" viewBox="0 0 1990.000000 1990.000000"
 preserveAspectRatio="xMidYMid meet">
<metadata>
Created by potrace 1.14, written by Peter Selinger 2001-2017
</metadata>
<g transform="translate(0.000000,1990.000000) scale(0.100000,-0.100000)"
fill="#000000" stroke="none">
<path d="M7007 16824 c-1 -1 -45 -5 -97 -9 -130 -11 -152 -13 -240 -30 -49
-10 -162 -38 -205 -51 -60 -19 -68 -21 -77 -23 -35 -7 -221 -105 -298 -156
-293 -195 -494 -497 -636 -960 -32 -103 -91 -353 -100 -420 -4 -31 -14 -96
-20 -129 -2 -10 -6 -44 -10 -75 -3 -31 -8 -63 -9 -72 -2 -9 -6 -52 -10 -95 -4
-43 -8 -90 -10 -104 -26 -173 -26 -1099 0 -1270 2 -14 6 -56 10 -95 6 -78 13
-137 20 -175 2 -14 7 -45 10 -70 18 -137 45 -270 86 -430 105 -403 251 -693
458 -913 l55 -58 25 32 c45 58 65 76 123 108 74 42 106 50 210 57 48 3 117 14
155 25 37 11 76 22 86 24 31 7 168 55 302 107 128 49 255 95 285 103 44 12
161 36 200 41 25 3 54 8 64 10 39 7 213 18 296 18 89 0 306 -12 342 -19 12 -3
65 -5 117 -6 89 -2 102 1 171 31 41 18 154 65 249 105 200 83 177 58 232 255
62 225 116 522 134 740 3 30 7 69 10 85 19 123 28 947 12 1155 -17 219 -16
207 -33 360 -3 25 -7 56 -9 70 -2 14 -7 43 -10 65 -3 23 -7 52 -10 65 -3 13
-7 42 -10 65 -15 104 -75 340 -125 495 -58 179 -139 351 -239 505 -121 189
-337 374 -553 475 -128 59 -326 118 -458 136 -30 4 -66 8 -80 10 -84 11 -404
25 -413 18z m178 -720 c21 -16 69 -40 108 -54 82 -29 100 -49 72 -80 -19 -20
-18 -21 6 -45 13 -13 69 -47 124 -76 138 -72 137 -71 92 -117 -35 -36 -46 -54
-29 -50 18 4 82 -41 82 -58 0 -10 -52 -49 -97 -71 l-53 -27 32 -13 c66 -28 60
-45 -41 -121 -73 -55 -76 -59 -64 -82 10 -20 9 -29 -4 -49 -9 -14 -17 -34 -19
-46 -2 -17 -8 -62 -18 -125 -2 -9 78 -69 218 -162 122 -82 240 -164 264 -184
124 -103 218 -299 297 -617 49 -193 59 -222 127 -372 81 -175 116 -275 134
-380 10 -53 10 -291 0 -383 -8 -80 -14 -101 -53 -179 -42 -84 -49 -88 -172
-90 -58 -1 -115 -2 -126 -2 -11 -1 -69 -37 -129 -81 -60 -44 -125 -84 -144
-90 -20 -5 -85 -7 -147 -3 l-112 5 -79 -37 c-192 -90 -338 -132 -430 -122
-125 13 -719 299 -798 384 -13 14 -34 58 -46 97 -13 39 -43 114 -68 166 -64
135 -82 194 -88 285 -3 44 -6 100 -8 125 -2 35 4 59 31 109 36 70 36 83 -2
139 -22 32 -23 42 -20 185 3 152 22 294 51 397 8 30 26 96 39 147 13 51 32
107 41 125 21 40 182 197 249 242 28 18 111 64 185 101 159 80 209 115 256
182 13 18 13 25 2 42 -11 18 -9 24 26 56 40 37 42 50 21 150 -5 24 0 39 24 72
17 24 31 47 31 51 0 5 -53 53 -117 108 -64 54 -121 104 -127 109 -6 6 -54 46
-106 90 -52 44 -101 85 -108 92 -7 7 -33 29 -58 49 l-45 37 43 44 c52 53 135
104 201 122 l47 14 48 -40 47 -40 75 27 c41 15 82 30 90 33 8 4 44 17 80 30
76 27 110 23 165 -19z"/>
<path d="M630 16720 c-103 -12 -189 -109 -218 -245 -5 -22 -8 -1120 -8 -2440
1 -2347 1 -2401 20 -2450 24 -61 68 -125 104 -152 57 -41 77 -43 554 -43 392
0 464 2 496 16 46 19 87 57 119 111 54 93 53 49 53 1384 l0 1237 25 0 c31 0
31 -1 39 -63 4 -27 9 -68 11 -90 3 -22 7 -56 10 -75 5 -51 15 -130 20 -166 2
-17 7 -57 11 -89 3 -32 7 -66 9 -76 2 -10 7 -49 10 -86 4 -37 8 -75 10 -83 2
-8 7 -42 10 -75 4 -33 8 -71 10 -85 12 -84 15 -110 20 -155 3 -27 8 -66 10
-85 6 -43 33 -266 40 -335 3 -27 8 -61 10 -75 2 -14 7 -52 10 -85 4 -33 8 -67
10 -75 2 -8 7 -46 11 -85 3 -38 8 -77 9 -85 3 -18 13 -98 20 -155 5 -53 25
-212 30 -250 3 -16 9 -68 15 -115 13 -99 43 -171 96 -229 66 -74 60 -73 504
-73 336 0 400 3 430 16 98 44 159 149 176 307 4 40 8 76 9 79 1 3 5 37 9 75 5
39 9 77 11 85 2 8 6 44 10 80 4 36 8 72 10 80 2 9 6 43 10 75 4 33 8 70 10 81
2 12 6 48 10 80 4 33 9 70 11 84 2 14 6 48 9 75 3 28 10 82 15 120 6 39 12 93
15 120 2 28 7 67 10 88 10 69 14 102 20 152 3 28 8 64 10 80 2 17 7 53 10 80
3 28 8 66 11 85 3 19 7 53 10 75 2 22 6 56 9 75 3 19 7 55 10 80 5 44 10 82
20 158 3 20 7 57 10 82 8 68 15 122 20 150 2 14 7 52 10 85 3 33 8 69 10 80 2
11 4 30 4 43 1 19 6 22 29 19 l27 -4 1 -1219 c0 -670 4 -1241 8 -1269 10 -63
54 -151 98 -192 66 -64 60 -63 570 -63 429 0 466 2 504 19 61 28 109 84 141
164 l28 72 -1 2395 c0 1317 -3 2411 -6 2431 -7 48 -48 136 -82 176 -14 17 -47
42 -73 54 l-46 22 -841 0 c-928 0 -877 3 -942 -61 -68 -68 -93 -133 -109 -282
-6 -55 -13 -116 -20 -180 -3 -19 -7 -56 -10 -82 -3 -27 -7 -67 -10 -90 -2 -24
-7 -65 -10 -93 -3 -27 -10 -86 -15 -130 -5 -44 -12 -107 -16 -139 -10 -96 -21
-123 -61 -160 -37 -34 -82 -42 -122 -22 -48 25 -73 73 -85 165 -3 20 -15 106
-26 191 -12 85 -23 166 -25 180 -2 14 -6 48 -10 75 -3 28 -10 79 -15 115 -17
117 -20 139 -26 192 -17 153 -77 259 -172 304 -34 16 -97 17 -822 18 -432 1
-805 -1 -830 -4z"/>
<path d="M9323 16719 c-144 -18 -257 -183 -254 -374 0 -33 2 -69 5 -80 5 -26
14 -88 21 -145 3 -25 8 -58 11 -73 3 -16 7 -38 9 -50 3 -29 16 -115 21 -147 2
-14 6 -45 10 -70 3 -25 12 -83 19 -130 8 -47 17 -105 20 -130 7 -55 14 -97 20
-130 2 -14 7 -45 10 -70 3 -25 8 -57 11 -72 3 -15 7 -42 9 -60 4 -32 9 -69 19
-133 3 -16 8 -52 12 -80 3 -27 8 -59 10 -70 2 -11 7 -40 10 -65 3 -25 12 -88
21 -140 8 -52 16 -106 18 -120 19 -139 36 -253 39 -259 2 -3 7 -34 10 -69 4
-34 11 -84 15 -110 5 -26 12 -71 16 -101 4 -30 8 -61 10 -70 6 -34 20 -126 30
-201 3 -25 8 -52 10 -60 2 -8 7 -40 10 -70 3 -30 8 -66 11 -80 10 -52 12 -67
19 -120 4 -30 9 -63 11 -74 2 -10 6 -44 10 -75 3 -31 8 -58 9 -61 2 -3 6 -30
9 -60 4 -30 9 -66 11 -80 9 -51 39 -250 51 -336 3 -27 7 -50 8 -50 0 -1 35 -4
77 -8 68 -6 82 -4 133 19 56 25 89 30 326 51 l76 6 31 -68 c17 -38 53 -114 79
-169 30 -62 48 -115 49 -140 1 -22 16 -71 33 -109 33 -69 50 -128 56 -195 6
-59 31 -132 66 -191 88 -150 111 -199 106 -232 -4 -28 2 -40 45 -90 42 -48 52
-67 59 -115 6 -32 10 -61 10 -65 0 -5 190 -8 423 -8 472 0 463 -1 539 73 67
64 102 164 122 347 3 25 7 54 10 65 2 11 7 47 11 80 4 32 8 66 10 75 4 25 15
92 20 135 3 22 8 52 11 67 3 15 7 42 9 60 3 30 9 77 20 148 2 14 7 45 10 70 3
25 8 56 10 70 7 46 65 454 71 495 3 22 7 47 9 55 2 8 7 40 10 70 3 30 10 80
15 110 5 30 12 78 16 105 3 28 12 88 20 134 7 46 13 87 12 90 0 3 0 8 2 11 1
3 3 19 5 35 10 72 17 128 35 245 10 69 21 143 24 165 5 38 73 512 81 565 2 14
7 45 10 70 4 25 8 61 11 80 3 19 9 60 14 90 5 30 12 79 15 109 4 30 8 63 11
74 2 11 8 57 14 101 6 45 13 93 16 109 9 59 13 84 19 132 3 28 8 61 10 75 8
47 36 235 41 275 2 22 6 51 9 65 4 31 15 107 20 140 20 140 27 189 31 210 13
63 12 227 -2 280 -28 103 -95 194 -171 231 -45 22 -50 22 -512 22 -512 0 -502
1 -574 -62 -42 -38 -78 -97 -100 -166 -20 -61 -23 -95 -52 -490 -4 -44 -8
-100 -10 -125 -2 -25 -6 -79 -10 -120 -3 -41 -8 -100 -10 -130 -3 -30 -7 -89
-10 -130 -3 -41 -8 -100 -11 -130 -2 -30 -6 -86 -9 -125 -3 -38 -7 -95 -10
-125 -15 -178 -22 -276 -30 -385 -3 -49 -8 -110 -10 -135 -2 -25 -7 -81 -10
-125 -4 -44 -8 -100 -10 -125 -3 -25 -7 -79 -10 -120 -3 -41 -7 -100 -10 -130
-2 -30 -7 -91 -10 -135 -4 -44 -8 -100 -10 -125 -2 -25 -7 -85 -10 -135 -4
-49 -8 -104 -10 -120 -2 -17 -6 -68 -9 -115 -9 -122 -17 -204 -22 -212 -2 -3
-24 -6 -49 -6 -25 0 -45 3 -46 6 0 4 -2 21 -3 37 -2 17 -6 71 -10 120 -4 50
-9 106 -11 125 -2 19 -7 71 -10 115 -4 44 -8 94 -10 110 -2 17 -7 66 -10 110
-6 84 -13 163 -20 230 -2 22 -7 74 -10 115 -3 41 -8 95 -10 120 -3 25 -7 77
-10 115 -3 39 -7 90 -10 115 -6 63 -14 154 -20 225 -2 33 -6 80 -9 105 -5 43
-9 98 -21 248 -3 37 -8 87 -10 112 -5 48 -12 130 -20 220 -3 30 -7 80 -10 110
-3 30 -7 82 -10 115 -13 157 -16 193 -21 235 -6 60 -23 265 -30 365 -7 104
-37 227 -68 280 -14 23 -42 57 -62 75 -73 63 -66 62 -539 64 -236 0 -453 -2
-482 -5z"/>
<path d="M12835 16720 c-67 -9 -115 -55 -139 -132 -10 -36 -13 -513 -13 -2528
0 -2655 -2 -2531 48 -2605 48 -70 -52 -65 1405 -65 1419 0 1340 -3 1391 52 12
13 32 45 43 72 21 47 22 58 22 615 1 563 1 567 -21 616 -27 61 -64 101 -105
114 -19 6 -283 10 -666 9 -709 -1 -673 -4 -722 69 -35 52 -47 96 -46 173 1 99
38 178 100 214 28 17 63 19 438 20 l407 1 36 28 c21 16 47 47 60 70 l22 42 0
590 0 590 -30 45 c-17 24 -46 55 -64 67 -34 23 -34 23 -433 23 -439 0 -442 0
-487 61 -35 47 -50 101 -46 170 3 80 5 85 37 141 50 83 12 79 743 80 717 0
673 -4 728 70 48 65 49 74 49 656 0 301 -3 563 -7 582 -9 53 -50 116 -91 141
l-36 22 -1292 1 c-710 1 -1309 -1 -1331 -4z"/>
<path d="M9908 12352 c-57 -30 -76 -34 -130 -33 -35 0 -79 4 -98 9 -50 12
-121 -2 -197 -38 -66 -32 -159 -70 -178 -74 -75 -17 -241 -79 -520 -193 -202
-82 -238 -97 -352 -149 -119 -55 -252 -64 -518 -37 -94 9 -376 9 -455 0 -86
-11 -192 -30 -230 -42 -10 -3 -27 -7 -37 -9 -10 -2 -52 -17 -93 -33 -90 -36
-114 -45 -118 -43 -1 0 -15 -6 -30 -14 -117 -60 -538 -180 -622 -177 -70 2
-91 -12 -92 -64 0 -37 22 -149 42 -205 5 -14 21 -65 36 -115 102 -338 436
-1202 603 -1558 59 -126 88 -165 140 -192 25 -12 86 -43 135 -68 49 -26 92
-44 96 -42 5 3 41 7 82 10 40 2 83 7 94 9 12 2 39 7 60 10 81 12 100 20 139
51 91 74 384 180 577 209 141 21 474 28 618 13 226 -24 250 -21 340 34 25 15
119 53 210 84 230 80 283 101 343 137 29 17 66 39 83 48 17 10 59 21 95 25
118 12 239 52 396 130 83 41 164 87 178 102 36 38 62 97 71 161 5 38 14 61 32
79 23 23 24 29 18 101 -3 42 -8 101 -10 130 -3 42 -10 60 -32 83 -15 16 -29
35 -30 42 -2 6 -6 26 -9 42 -3 17 -19 49 -35 72 -19 26 -30 54 -30 75 0 43
-16 101 -46 164 -13 28 -26 69 -28 90 -2 21 -8 68 -12 104 -4 36 -7 68 -6 72
1 3 -25 35 -58 70 -37 39 -60 73 -61 88 -1 14 -2 45 -3 70 -1 34 -13 67 -50
132 -28 50 -53 85 -60 82 -8 -3 -12 8 -13 34 0 21 -10 71 -21 112 -12 41 -22
95 -24 119 -1 31 -16 68 -49 126 -40 69 -47 89 -43 120 5 43 -2 71 -19 77 -7
3 -42 -11 -79 -30z m-400 -639 c10 -14 15 -33 14 -53 -2 -31 -15 -157 -17
-169 -1 -9 -6 -50 -10 -91 -4 -41 -8 -82 -10 -90 -2 -8 -6 -49 -10 -90 -3 -41
-8 -82 -10 -90 -2 -8 -6 -46 -10 -83 -3 -37 -8 -76 -10 -85 -1 -9 -6 -48 -10
-87 -4 -38 -8 -82 -10 -98 -14 -119 -15 -150 -6 -183 5 -22 12 -52 14 -69 3
-16 17 -94 32 -173 32 -163 29 -185 -27 -196 -18 -3 -44 -8 -58 -11 -14 -3
-50 -10 -80 -16 -118 -23 -127 -24 -157 -20 -25 2 -28 13 -94 356 -19 96 -31
127 -92 245 -92 179 -172 331 -212 405 -123 231 -195 376 -195 393 0 49 22 62
125 77 22 4 47 8 55 10 18 5 77 16 106 19 11 2 26 6 33 10 6 4 21 4 32 1 20
-7 33 -30 111 -205 23 -53 42 -70 69 -63 32 9 38 34 45 165 4 96 9 127 22 140
12 12 65 27 157 44 77 14 142 27 143 29 9 8 48 -6 60 -22z m-1039 -196 c20
-17 30 -51 56 -192 13 -71 27 -141 29 -155 6 -26 7 -29 37 -185 10 -55 28
-145 39 -200 11 -55 22 -118 25 -140 4 -22 8 -47 11 -56 2 -9 11 -52 19 -95 8
-43 16 -88 18 -99 3 -11 7 -36 11 -55 6 -37 9 -53 25 -135 20 -102 21 -126 6
-155 -16 -31 -28 -35 -211 -67 -100 -18 -115 -16 -139 20 -13 20 -52 196 -80
357 -3 19 -12 67 -20 105 -18 90 -35 182 -41 220 -7 45 -13 57 -23 51 -5 -4
-8 -28 -6 -54 2 -26 6 -87 10 -137 3 -49 7 -117 10 -150 2 -33 6 -105 10 -160
3 -55 8 -130 11 -167 7 -91 -11 -123 -75 -134 -25 -4 -48 -8 -51 -9 -3 -1 -37
-7 -77 -15 -102 -19 -112 -11 -156 127 -20 60 -70 216 -112 348 -85 262 -83
258 -95 250 -4 -3 -2 -31 5 -63 7 -31 16 -75 19 -97 4 -22 13 -74 22 -115 23
-115 75 -391 80 -432 4 -28 -1 -42 -18 -63 -20 -23 -41 -30 -157 -52 -104 -19
-139 -22 -158 -14 -26 12 -48 55 -57 115 -6 37 -18 100 -71 371 -13 66 -26
134 -29 150 -3 17 -8 41 -11 55 -2 14 -7 38 -9 54 -3 16 -10 52 -15 80 -6 28
-13 62 -15 76 -6 31 -40 209 -67 345 -28 144 -32 205 -17 235 15 27 14 27 343
90 204 38 192 45 258 -145 58 -170 67 -183 102 -149 14 14 15 33 9 133 -11
177 -10 202 14 221 12 10 83 29 169 45 81 15 186 35 233 45 85 18 113 17 139
-3z"/>
<path d="M1152 10428 c-41 -11 -101 -73 -131 -137 -32 -69 -30 47 -35 -1861
-2 -767 -6 -1420 -9 -1450 -3 -30 -8 -93 -11 -140 -4 -47 -8 -95 -10 -106 -3
-12 -7 -39 -10 -60 -7 -43 -20 -65 -65 -111 l-32 -31 -133 -4 c-126 -3 -135
-4 -175 -31 -48 -32 -94 -99 -118 -172 -14 -43 -17 -117 -18 -539 -1 -268 2
-509 7 -534 19 -105 84 -198 163 -233 36 -16 66 -18 290 -14 137 2 260 6 273
9 13 3 51 8 85 11 34 3 73 7 87 10 14 2 43 6 65 10 193 28 358 77 469 139 217
122 394 419 442 746 3 19 7 46 9 60 2 14 7 45 10 70 3 25 9 68 12 95 4 28 8
941 10 2030 3 1470 1 1994 -7 2035 -15 73 -65 154 -115 187 l-40 27 -492 1
c-270 0 -505 -3 -521 -7z"/>
<path d="M2864 10429 c-96 -20 -184 -124 -215 -256 -21 -88 -15 -3409 6 -3593
2 -19 7 -62 10 -95 34 -346 137 -674 278 -894 115 -177 275 -322 453 -409 75
-36 275 -106 334 -116 14 -2 45 -9 70 -15 25 -5 68 -13 95 -16 28 -4 77 -10
110 -15 154 -21 592 -18 713 5 9 1 40 6 67 9 141 19 371 89 490 148 161 81
324 222 430 373 159 228 271 562 310 925 4 36 9 73 11 82 15 81 19 485 19
1913 0 908 -3 1664 -7 1682 -18 90 -51 154 -109 211 -70 69 -46 66 -554 66
-451 0 -461 0 -501 -21 -72 -38 -133 -124 -160 -228 -11 -41 -14 -354 -14
-1660 0 -885 -3 -1636 -5 -1667 -19 -235 -117 -329 -345 -331 -209 -2 -318 76
-356 253 -14 67 -16 252 -17 1709 0 899 -4 1654 -9 1679 -19 104 -92 212 -166
248 -34 16 -75 18 -473 19 -240 0 -449 -2 -465 -6z"/>
<path d="M10999 10435 c0 0 -2 -17 -5 -38 -5 -49 -42 -175 -53 -182 -5 -3 -14
-29 -21 -57 -26 -124 -113 -254 -221 -334 -49 -36 -317 -174 -338 -174 -6 0
-11 -8 -12 -17 0 -10 0 -1004 -1 -2210 l0 -2192 22 -47 c42 -86 4 -81 653 -80
644 1 601 -4 647 78 l24 43 1 765 1 765 22 42 c29 57 62 77 120 74 35 -1 53
-8 74 -28 32 -30 42 -59 97 -273 50 -195 91 -352 130 -500 16 -63 50 -194 75
-290 147 -570 151 -583 189 -632 36 -45 36 -45 629 -44 536 1 564 2 591 20 35
24 64 80 72 139 6 41 -5 97 -61 317 -24 97 -35 138 -38 156 -2 12 -11 48 -20
80 -9 32 -83 331 -165 664 -83 333 -171 688 -196 790 -26 102 -48 192 -50 200
-2 8 -22 92 -45 185 -24 94 -42 186 -42 205 0 19 12 85 27 145 15 61 29 118
31 128 7 29 11 47 54 222 58 242 81 338 85 355 2 8 38 157 80 330 42 173 78
322 80 331 2 9 15 65 30 125 14 60 28 116 30 124 5 21 93 387 117 485 32 131
33 192 6 244 -13 25 -36 54 -51 65 -27 20 -41 21 -580 22 -448 0 -557 -2 -580
-13 -42 -21 -72 -77 -92 -173 -27 -123 -38 -174 -64 -280 -30 -125 -90 -381
-96 -411 -8 -42 -88 -389 -98 -424 -6 -22 -12 -47 -13 -55 -2 -8 -5 -28 -8
-45 -3 -16 -6 -33 -6 -37 -1 -4 -7 -26 -15 -48 -8 -22 -14 -43 -14 -45 0 -3
-2 -18 -5 -33 -4 -15 -8 -36 -10 -47 -31 -148 -49 -202 -83 -237 -62 -65 -151
-42 -190 48 -15 35 -17 114 -18 859 -1 776 -2 822 -20 855 -20 39 -62 79 -85
81 -10 1 -581 5 -591 4z"/>
<path d="M15907 10353 c-1 -1 -256 -4 -567 -7 -311 -3 -574 -7 -585 -10 -11
-2 -41 -7 -67 -10 -226 -30 -401 -169 -472 -371 -22 -62 -29 -93 -42 -185 -2
-14 -4 -737 -4 -1607 0 -1758 -6 -1626 67 -1726 77 -105 218 -159 343 -132
135 29 294 44 479 45 663 2 1219 -298 1531 -826 103 -175 173 -359 224 -592 4
-20 15 -95 30 -212 3 -25 8 -103 11 -175 2 -71 7 -143 10 -159 14 -73 94 -174
166 -212 84 -43 70 -43 1367 -41 l1237 2 62 29 c73 33 140 100 173 172 25 53
32 162 18 279 -7 55 -20 181 -34 315 -3 30 -7 71 -9 90 -12 101 -19 158 -30
275 -3 33 -8 78 -10 100 -3 22 -12 108 -20 190 -17 163 -23 211 -30 265 -2 19
-7 67 -10 105 -3 39 -8 81 -10 95 -2 14 -6 50 -9 80 -3 30 -10 96 -16 145 -5
50 -12 117 -15 150 -3 33 -8 74 -10 90 -2 17 -7 57 -10 90 -3 33 -8 71 -10 85
-2 14 -7 57 -11 95 -3 39 -8 81 -9 95 -2 14 -6 54 -10 90 -10 101 -32 171 -76
240 -92 145 -261 408 -294 460 -24 36 -90 139 -148 230 -58 91 -110 170 -116
177 -6 7 -11 15 -11 18 0 3 -30 51 -67 108 -118 182 -188 290 -251 387 -33 52
-65 100 -71 107 -6 7 -11 14 -11 17 0 3 -75 119 -167 258 -92 139 -172 260
-178 269 -15 26 -113 173 -122 184 -4 6 -60 87 -123 180 -152 226 -277 403
-309 439 -42 46 -180 145 -256 183 -151 77 -238 97 -465 108 -195 10 -1057 24
-1063 18z m1212 -537 c61 -10 160 -57 195 -92 15 -16 86 -117 156 -224 70
-107 183 -280 251 -385 69 -104 156 -238 194 -298 39 -59 115 -176 170 -260
112 -173 120 -185 415 -642 117 -181 218 -339 225 -350 22 -36 38 -126 32
-184 -15 -162 -146 -290 -312 -305 -105 -10 -316 -19 -429 -18 -344 1 -573 62
-781 210 -75 53 -181 153 -230 216 -16 21 -38 47 -47 59 -10 11 -18 23 -18 27
0 3 -19 25 -42 49 -73 73 -242 142 -408 166 -19 3 -44 7 -55 10 -19 4 -53 7
-183 20 -57 5 -230 12 -542 20 -397 10 -595 34 -736 86 -169 63 -258 179 -293
377 -6 34 -13 74 -16 89 -13 71 -19 325 -19 723 0 339 3 444 14 475 27 82 100
169 167 201 84 41 76 41 1182 39 586 -1 1086 -5 1110 -9z"/>
<path d="M6373 7625 l2 -2300 28 -57 c34 -69 79 -119 132 -145 38 -19 61 -20
515 -19 l475 1 40 23 c49 29 99 93 128 164 21 52 21 64 23 753 1 687 2 702 22
741 28 55 64 78 111 70 32 -5 81 -46 81 -68 0 -3 17 -44 39 -90 21 -45 66
-146 101 -223 34 -77 80 -178 101 -223 22 -46 39 -85 39 -87 0 -2 15 -36 34
-77 58 -124 321 -708 357 -792 40 -93 106 -169 159 -184 20 -5 250 -9 545 -8
l510 1 40 26 c69 45 126 137 141 225 8 45 11 4158 4 4179 -4 11 -20 5 -72 -25
-65 -37 -139 -67 -408 -163 -69 -25 -152 -60 -185 -79 -107 -60 -264 -86 -405
-66 -30 4 -103 10 -161 14 l-106 6 0 -155 c0 -131 -3 -161 -19 -193 -22 -46
-73 -82 -108 -79 -53 6 -76 37 -167 223 -87 179 -90 182 -117 176 -163 -36
-305 -89 -384 -144 -60 -43 -126 -75 -168 -84 -14 -2 -50 -10 -80 -16 -30 -6
-73 -13 -95 -16 -22 -3 -51 -8 -65 -10 -14 -3 -68 -7 -120 -9 -107 -5 -181 10
-270 54 -193 95 -265 138 -307 180 -47 47 -116 147 -145 211 -9 19 -32 69 -51
110 -30 66 -76 170 -171 395 l-25 60 2 -2300z"/>
<path d="M14945 5368 c-128 -15 -324 -81 -422 -142 -374 -231 -587 -590 -592
-1001 -2 -98 3 -140 35 -293 15 -74 91 -239 154 -333 99 -150 261 -298 425
-390 103 -57 265 -110 395 -128 57 -8 247 -6 305 3 168 27 341 95 480 189 81
56 223 198 280 281 68 102 138 249 161 341 4 17 8 35 10 40 6 22 21 93 30 145
7 42 8 276 1 287 -3 4 -8 33 -12 63 -4 30 -11 63 -16 73 -5 9 -7 17 -5 17 3 0
-6 33 -21 73 -102 284 -282 499 -541 645 -83 47 -245 105 -340 122 -82 14
-240 18 -327 8z"/>
<path d="M1797 4634 c-1 -1 -132 -4 -292 -8 -159 -3 -308 -8 -330 -11 -22 -3
-62 -7 -90 -10 -44 -5 -111 -16 -182 -29 -12 -3 -57 -15 -100 -27 -43 -12 -94
-23 -113 -24 -147 -13 -185 -18 -228 -30 -27 -8 -66 -28 -86 -44 -21 -17 -54
-35 -74 -42 -34 -11 -51 -25 -52 -40 0 -4 20 -12 45 -18 l46 -12 -31 -26 -31
-26 42 -25 c42 -25 42 -25 19 -34 -39 -15 -90 -58 -90 -77 0 -9 6 -23 13 -30
15 -15 5 -24 -110 -89 -45 -26 -82 -49 -82 -52 -1 -3 45 -25 100 -49 l101 -44
-64 -23 c-34 -13 -68 -24 -75 -24 -28 0 -21 -24 21 -72 43 -49 48 -52 88 -50
l43 2 -46 -20 c-30 -14 -54 -35 -70 -60 -14 -23 -41 -47 -67 -59 -52 -26 -54
-48 -7 -94 l35 -34 -42 -16 c-24 -8 -53 -18 -65 -22 -22 -6 -32 -24 -15 -26 4
-1 171 -2 372 -4 328 -2 453 -7 545 -20 17 -2 64 -7 105 -10 41 -4 91 -9 110
-12 49 -8 950 -12 3160 -17 1053 -3 1935 -7 1960 -10 25 -3 90 -8 145 -11 55
-3 125 -7 155 -10 30 -2 91 -7 135 -10 44 -3 107 -7 140 -10 33 -2 94 -7 135
-10 41 -3 93 -8 115 -10 22 -2 81 -7 130 -10 50 -3 104 -8 120 -10 17 -3 71
-7 120 -10 50 -3 110 -7 135 -10 25 -2 86 -7 135 -10 50 -3 115 -7 145 -10 30
-2 102 -7 160 -10 58 -3 134 -8 170 -10 36 -2 124 -7 195 -10 72 -3 168 -8
215 -10 47 -3 150 -8 230 -11 80 -3 197 -7 260 -10 63 -2 423 -6 800 -9 1688
-11 2600 -24 2705 -41 17 -2 87 -6 156 -9 184 -6 272 20 332 98 55 72 111 212
132 332 33 193 36 222 36 355 0 97 -12 200 -35 295 -22 96 -74 130 -226 150
-19 2 -82 14 -140 26 -58 11 -114 23 -125 25 -11 2 -31 6 -45 9 -14 2 -38 7
-55 9 -173 28 -212 31 -460 42 -631 28 -905 33 -1055 20 -86 -7 -1242 -8
-1510 -1 -283 7 -566 16 -665 20 -194 9 -331 16 -405 20 -41 2 -129 7 -195 10
-66 3 -149 7 -185 10 -36 3 -110 7 -165 10 -55 3 -127 7 -160 10 -68 5 -201
14 -290 20 -33 2 -91 6 -130 9 -38 3 -104 9 -145 12 -41 3 -93 7 -115 9 -22 2
-78 6 -125 10 -47 3 -96 8 -110 10 -14 2 -68 7 -120 10 -52 4 -107 8 -122 10
-86 10 -339 18 -503 16 -104 -2 -368 -3 -585 -2 -857 1 -1689 0 -1975 -1 -165
-1 -347 2 -405 6 -87 7 -1406 16 -1413 10z"/>
</g>
</svg>
